<?xml version="1.0" encoding="UTF-8"?>
<svg version="1.1" xmlns="http://www.w3.org/2000/svg" width="650" height="650">
<path d="M0 0 C1.62615234 0.57041016 1.62615234 0.57041016 3.28515625 1.15234375 C16.35249321 5.86801699 28.07262335 12.43213347 39 21 C39.85207031 21.66 40.70414063 22.32 41.58203125 23 C55.05957078 33.59984676 65.32872634 44.93930068 75 59 C75.96486328 60.39605469 75.96486328 60.39605469 76.94921875 61.8203125 C96.71914333 91.58626637 99.99812347 124.25871181 99 159 C98.97873047 159.89380371 98.95746094 160.78760742 98.93554688 161.70849609 C98.21699341 182.84594392 88.75113015 207.45226429 76.13891602 224.37036133 C74.46144802 226.77059689 73.22847774 229.34907436 72 232 C71.34 232 70.68 232 70 232 C69.7525 232.55429687 69.505 233.10859375 69.25 233.6796875 C62.71781273 245.80506013 50.94417999 255.9306499 40 264 C38.96359375 264.80244141 38.96359375 264.80244141 37.90625 265.62109375 C33.76038391 268.81819433 29.57425603 271.45874665 25 274 C24.01 274.680625 23.02 275.36125 22 276.0625 C19.40699926 277.73714631 16.92146303 279.01801266 14.0625 280.1640625 C12.5686033 280.76954336 11.09096163 281.41564583 9.625 282.0859375 C-13.13975361 292.23953499 -36.33716012 294.69219462 -61 294 C-61.69432129 293.98598145 -62.38864258 293.97196289 -63.10400391 293.95751953 C-80.53635947 293.55289199 -100.87340824 289.52442572 -115.875 280.2109375 C-118.22049635 278.87434951 -120.65351071 277.86846224 -123.14013672 276.82568359 C-126.22280674 275.45713673 -129.14040542 273.8012403 -132.0625 272.125 C-132.64837891 271.79886719 -133.23425781 271.47273438 -133.83789062 271.13671875 C-137.95268288 268.78932339 -141.40838943 266.08725674 -145 263 C-145.99 262.34 -146.98 261.68 -148 261 C-148 260.34 -148 259.68 -148 259 C-148.556875 258.773125 -149.11375 258.54625 -149.6875 258.3125 C-152.64691361 256.63283282 -154.62408786 254.43248148 -157 252 C-157.94875 251.236875 -158.8975 250.47375 -159.875 249.6875 C-165.60464671 244.99155244 -170.00681226 239.19632581 -174 233 C-174.60328125 232.26910156 -175.2065625 231.53820312 -175.828125 230.78515625 C-178.359136 227.53945329 -180.45968973 224.15687019 -182.5625 220.625 C-183.14161133 219.67367187 -183.14161133 219.67367187 -183.73242188 218.703125 C-186.19769925 214.58732973 -188.17354722 210.44743675 -190 206 C-190.66312982 204.56206951 -191.3272508 203.12459583 -191.9921875 201.6875 C-194.12293771 196.90294196 -195.66428347 192.02362826 -197.125 187 C-197.50205078 185.74316406 -197.50205078 185.74316406 -197.88671875 184.4609375 C-202.70870094 168.15203439 -203.33131559 152.12966336 -203.03710938 135.21630859 C-203.00392222 133.23424936 -202.99267791 131.25185091 -202.984375 129.26953125 C-202.61674437 117.43970284 -199.33896794 106.291513 -196 95 C-195.79358887 94.2992334 -195.58717773 93.5984668 -195.37451172 92.87646484 C-191.12931708 78.88820056 -183.8596018 65.59200235 -175 54 C-174.44828125 53.2575 -173.8965625 52.515 -173.328125 51.75 C-148.21846526 18.57760549 -148.21846526 18.57760549 -133 16 C-133 15.34 -133 14.68 -133 14 C-92.65305394 -8.67768913 -44.28392218 -16.83894884 0 0 Z " fill="#DC4814" transform="translate(385,97)"/>
<path d="M0 0 C0.33 16.83 0.66 33.66 1 51 C4.3 49.68 7.6 48.36 11 47 C24.20780884 44.35843823 37.15005557 45.53054692 48.8125 52.6875 C57.18573821 58.76310931 63.18696152 66.59857899 66.125 76.5 C66.62386719 78.15515625 66.62386719 78.15515625 67.1328125 79.84375 C70.62576 92.55682017 70.99794206 108.6874732 66 121 C65.56494141 122.17175781 65.56494141 122.17175781 65.12109375 123.3671875 C60.14730236 135.72882802 51.77773295 142.9078236 40.0625 148.703125 C32.05989065 152.09198508 25.16116143 152.35090997 16.5 152.3125 C15.24928711 152.30903564 13.99857422 152.30557129 12.70996094 152.30200195 C0.47480485 152.158087 -9.47852956 150.32055142 -21 146 C-21 98.81 -21 51.62 -21 3 C-3.27272727 -1.09090909 -3.27272727 -1.09090909 0 0 Z M1.36528015 69.19599915 C-0.61485775 71.81243685 -0.36038811 73.77622117 -0.34057617 77.03198242 C-0.34034958 78.27304245 -0.34012299 79.51410248 -0.33988953 80.79277039 C-0.32456968 82.14700684 -0.3089217 83.50123961 -0.29296875 84.85546875 C-0.28737251 86.2412317 -0.28310254 87.62700059 -0.28010559 89.01277161 C-0.26865883 92.65762764 -0.23919358 96.30212423 -0.20599365 99.94683838 C-0.17528885 103.66698342 -0.16159941 107.38718661 -0.14648438 111.10742188 C-0.11432331 118.40511167 -0.06312951 125.70250544 0 133 C1.71661124 133.33118938 3.43427385 133.65693148 5.15234375 133.98046875 C6.10874756 134.16246826 7.06515137 134.34446777 8.05053711 134.53198242 C18.08474097 136.12419903 27.71161392 135.2076736 36.25 129.375 C42.32073146 124.44713904 47.46858238 117.00802882 48.30639648 109.11254883 C48.37679848 105.67879122 48.42090838 102.24696589 48.4375 98.8125 C48.47037109 97.63107422 48.50324219 96.44964844 48.53710938 95.23242188 C48.5861136 87.19127382 47.15815875 81.84654326 43 75 C42.5875 74.071875 42.175 73.14375 41.75 72.1875 C38.24929828 67.81162286 32.48666016 65.00987862 27 64 C18.33803884 63.20424754 8.63218365 63.87936316 1.36528015 69.19599915 Z " fill="#DC4713" transform="translate(166,414)"/>
<path d="M0 0 C6.6 0 13.2 0 20 0 C20.01981934 1.7850293 20.03963867 3.57005859 20.06005859 5.40917969 C20.12823591 11.35239912 20.20503833 17.29545649 20.28752708 23.23849106 C20.33715974 26.8365276 20.38348815 30.43453936 20.421875 34.03271484 C20.45915083 37.51474096 20.50561548 40.99654123 20.55806351 44.47837067 C20.58521223 46.43217986 20.60320246 48.38610957 20.62094116 50.34002686 C20.47556907 65.34656905 20.47556907 65.34656905 26.4609375 78.6015625 C31.90675813 83.54979546 37.83555122 84.73465005 45 85 C53.415 84.505 53.415 84.505 62 84 C62 56.28 62 28.56 62 0 C68.93 0 75.86 0 83 0 C83 32.01 83 64.02 83 97 C70.09161672 101.84064373 58.25386377 103.27904608 44.5625 103.375 C42.92885498 103.39566528 42.92885498 103.39566528 41.26220703 103.41674805 C29.41986848 103.3488966 19.283043 100.2359102 10.1796875 92.44140625 C-0.05708714 81.71594137 -0.29844291 65.35890798 -0.1953125 51.46484375 C-0.19157537 49.97555228 -0.18873171 48.48625832 -0.18673706 46.9969635 C-0.17915567 43.10569287 -0.15955544 39.21457511 -0.1373291 35.32336426 C-0.11675127 31.34124824 -0.10770999 27.35910716 -0.09765625 23.37695312 C-0.07630347 15.58455815 -0.04116721 7.7923201 0 0 Z " fill="#DC4713" transform="translate(40,463)"/>
<path d="M0 0 C6.6 0 13.2 0 20 0 C20.0093457 1.8351416 20.01869141 3.6702832 20.02832031 5.56103516 C20.06409426 11.67995158 20.1180453 17.7985058 20.18390274 23.91716957 C20.22311851 27.62057685 20.25543177 31.32375557 20.27099609 35.02734375 C20.28633627 38.6132842 20.32107909 42.19859513 20.36830902 45.78425217 C20.3899846 47.79223728 20.39245869 49.80040098 20.39434814 51.8085022 C20.5341491 60.74341113 20.96090269 71.86706699 26.722229 79.18862915 C32.14022608 84.12050447 38.97826014 84.43575305 46 85 C53.92 84.505 53.92 84.505 62 84 C62 56.28 62 28.56 62 0 C68.6 0 75.2 0 82 0 C82 32.34 82 64.68 82 98 C68.95306808 101.06986633 58.2206223 103.19085934 45.1875 103.25 C44.06279297 103.270625 42.93808594 103.29125 41.77929688 103.3125 C32.56341559 103.35533966 24.57460815 102.01097179 16.625 97.125 C15.83351563 96.65320313 15.04203125 96.18140625 14.2265625 95.6953125 C9.84864477 92.36195058 7.32729011 88.10322336 4.875 83.25 C4.37742187 82.28578125 3.87984375 81.3215625 3.3671875 80.328125 C-0.41595509 71.11887505 -0.26678856 62.02410533 -0.1953125 52.24609375 C-0.19157551 50.734382 -0.18873179 49.22266781 -0.18673706 47.71095276 C-0.17915453 43.76049946 -0.15955326 39.81019668 -0.1373291 35.85980225 C-0.11675378 31.81736282 -0.10771052 27.77489873 -0.09765625 23.73242188 C-0.07630145 15.82153831 -0.04116418 7.91080531 0 0 Z " fill="#DC4713" transform="translate(252,463)"/>
<path d="M0 0 C8.43956523 9.64745839 10.73912123 22.17174743 10.71508789 34.69311523 C10.71523392 35.33787308 10.71537994 35.98263092 10.7155304 36.64692688 C10.71484067 38.75163282 10.70709292 40.85624726 10.69921875 42.9609375 C10.69735122 44.43066866 10.6959289 45.90040044 10.69493103 47.37013245 C10.6911322 51.21863556 10.68132471 55.06710031 10.67022705 58.91558838 C10.659956 62.85062135 10.65542126 66.78566058 10.65039062 70.72070312 C10.63969982 78.42710276 10.62212466 86.13346297 10.6015625 93.83984375 C4.0015625 93.83984375 -2.5984375 93.83984375 -9.3984375 93.83984375 C-9.41302002 91.85734619 -9.42760254 89.87484863 -9.44262695 87.83227539 C-9.49444297 81.25436663 -9.55977258 74.67669847 -9.63415241 68.09900761 C-9.67872523 64.11412167 -9.7180094 60.1293349 -9.74487305 56.14428711 C-9.77103768 52.29262793 -9.81153088 48.44135304 -9.86162376 44.5899334 C-9.87820412 43.12651822 -9.88977305 41.66303672 -9.89605141 40.19954109 C-9.94756527 26.06118155 -9.94756527 26.06118155 -16.3984375 13.83984375 C-16.3984375 13.17984375 -16.3984375 12.51984375 -16.3984375 11.83984375 C-17.0996875 11.71609375 -17.8009375 11.59234375 -18.5234375 11.46484375 C-21.3984375 10.83984375 -21.3984375 10.83984375 -24.16015625 9.8125 C-27.65017139 8.76423248 -30.45032955 8.60674319 -34.0859375 8.65234375 C-35.20355469 8.65878906 -36.32117188 8.66523438 -37.47265625 8.671875 C-42.45856439 8.88520241 -47.42846256 9.38802785 -52.3984375 9.83984375 C-52.3984375 37.55984375 -52.3984375 65.27984375 -52.3984375 93.83984375 C-58.6684375 93.83984375 -64.9384375 93.83984375 -71.3984375 93.83984375 C-71.3984375 61.49984375 -71.3984375 29.15984375 -71.3984375 -4.16015625 C-50.94698026 -12.34073915 -17.63817965 -15.88585236 0 0 Z " fill="#DC4713" transform="translate(429.3984375,470.16015625)"/>
<path d="M0 0 C6.27 0 12.54 0 19 0 C19.01981934 1.59279785 19.03963867 3.1855957 19.06005859 4.82666016 C19.13672374 10.79441872 19.22534238 16.7619526 19.31738281 22.72949219 C19.35542287 25.30138683 19.39031693 27.87333016 19.421875 30.4453125 C19.46807284 34.16423836 19.52597162 37.88283607 19.5859375 41.6015625 C19.59748871 42.73236237 19.60903992 43.86316223 19.62094116 45.02822876 C19.81437492 55.73767448 20.21428305 66.65692913 25.1953125 76.328125 C26 78 26 78 26 80 C26.9075 80.28875 27.815 80.5775 28.75 80.875 C32 82 32 82 33.94140625 83.02734375 C42.39899287 87.02343306 54.75681557 84.4848932 63 84 C63 56.28 63 28.56 63 0 C69.27 0 75.54 0 82 0 C82 32.34 82 64.68 82 98 C68.95306808 101.06986633 58.2206223 103.19085934 45.1875 103.25 C44.06279297 103.270625 42.93808594 103.29125 41.77929688 103.3125 C32.5165784 103.35555738 24.53609365 101.99853416 16.5625 97.0625 C15.75941406 96.57910156 14.95632813 96.09570312 14.12890625 95.59765625 C11.89744142 93.92303402 10.48085732 92.35699155 9 90 C9 89.34 9 88.68 9 88 C8.34 88 7.68 88 7 88 C-3.16581588 71.85885723 -0.25326436 50.49813746 -0.1373291 32.16052246 C-0.11659033 28.52630966 -0.10767647 24.89206786 -0.09765625 21.2578125 C-0.07643213 14.17179867 -0.04136004 7.08592918 0 0 Z " fill="#DC4713" transform="translate(533,463)"/>
<path d="M0 0 C0 10.23 0 20.46 0 31 C12.54 31 25.08 31 38 31 C38 36.28 38 41.56 38 47 C25.46 47 12.92 47 0 47 C0.09755389 53.86471343 0.20066488 60.72890769 0.31738281 67.59326172 C0.35538455 69.92263923 0.39028446 72.25206969 0.421875 74.58154297 C-0.10239373 93.03097501 -0.10239373 93.03097501 3 111 C4.89143573 112.35555629 4.89143573 112.35555629 7 113 C7.61617188 113.30421875 8.23234375 113.6084375 8.8671875 113.921875 C15.99115585 116.86016545 22.63928962 115.73247106 30 114 C31.33381364 113.33429481 32.66723549 112.66780311 34 112 C35.32 112 36.64 112 38 112 C38.53414112 113.89212702 39.05178329 115.78891636 39.5625 117.6875 C39.99755859 119.27111328 39.99755859 119.27111328 40.44140625 120.88671875 C41.0178479 124.09947393 41.20289878 125.9663737 40 129 C37.85546875 130.328125 37.85546875 130.328125 35.1875 131.25 C34.31480469 131.56453125 33.44210937 131.8790625 32.54296875 132.203125 C21.82510211 135.56171916 6.14664802 136.28981094 -4 131 C-12.16304381 126.19591202 -15.20292548 121.12606356 -17.80464172 112.25704956 C-20.61282023 100.93088918 -20.38145778 89.79563248 -20.29296875 78.1953125 C-20.2873621 76.01814061 -20.28309707 73.84096489 -20.28010559 71.66378784 C-20.26874093 65.97895557 -20.23934728 60.29435924 -20.20599365 54.60961914 C-20.1751106 48.79055979 -20.16156156 42.97146172 -20.14648438 37.15234375 C-20.1144684 25.76812643 -20.06337531 14.38408296 -20 3 C-17.60530271 2.49395076 -15.20948283 1.99500483 -12.8125 1.5 C-12.13896484 1.35691406 -11.46542969 1.21382813 -10.77148438 1.06640625 C-7.03206773 0.30028186 -3.85912726 0 0 0 Z " fill="#DC4713" transform="translate(481,432)"/>
<path d="M0 0 C0.35191406 0.65484375 0.70382812 1.3096875 1.06640625 1.984375 C1.56011719 2.89703125 2.05382812 3.8096875 2.5625 4.75 C3.10132813 5.74644531 3.64015625 6.74289063 4.1953125 7.76953125 C6.58831106 12.05310227 9.17057639 16.21465577 11.77734375 20.37109375 C13 23 13 23 12.921875 25.14453125 C11.75163327 27.49989067 10.37888946 28.62837627 8.3125 30.25 C-1.81076351 38.72529038 -8.88056953 51.07630146 -10.23632812 64.30615234 C-11.48541323 84.18478832 -6.84446619 98.90847189 6.3125 114.125 C8.49796202 116.54541027 10.26067612 118.17378408 13 120 C12.37446174 123.03096731 11.37882193 125.32256692 9.78515625 127.96875 C9.34623047 128.70480469 8.90730469 129.44085938 8.45507812 130.19921875 C7.99552734 130.95847656 7.53597656 131.71773437 7.0625 132.5 C6.15640602 134.00972943 5.25142034 135.52012469 4.34765625 137.03125 C3.74449585 138.02995117 3.74449585 138.02995117 3.12915039 139.04882812 C2.00161205 140.99721438 0.98547799 142.97659798 0 145 C-9.61641384 143.50162854 -18.3646419 132.20416668 -23.78271484 124.80712891 C-27.76767869 118.89122389 -30.94444241 112.43351259 -34 106 C-34.30309082 105.37561035 -34.60618164 104.7512207 -34.91845703 104.10791016 C-36.52914252 100.62389672 -37.65397396 97.83408261 -37 94 C-35.5390625 91.7890625 -35.5390625 91.7890625 -33.625 89.625 C-28.57433267 83.42135205 -27.52095317 77.73030296 -27.68359375 69.84765625 C-28.36412869 63.72284183 -30.28832943 58.5975592 -34.8125 54.375 C-37 52 -37 52 -37.125 48.4375 C-36.00892138 42.68030238 -33.40100655 37.31588167 -31 32 C-30.34 32 -29.68 32 -29 32 C-28.91621094 31.29230469 -28.83242188 30.58460938 -28.74609375 29.85546875 C-26.38269488 20.8102092 -9.80307473 0 0 0 Z " fill="#FEFBFA" transform="translate(286,167)"/>
<path d="M0 0 C9.24 0 18.48 0 28 0 C26.22959038 23.01532504 19.43081446 40.56918554 3 57 C0.0234375 56.90625 0.0234375 56.90625 -3.625 56.5 C-12.17956245 55.7739993 -18.09812434 56.4197601 -25 62 C-30.54964868 67.67816686 -33.90974891 72.00482535 -35 80 C-45.39115769 81.40897053 -55.49008543 82.35857356 -66 82 C-67.05445313 81.99355469 -68.10890625 81.98710937 -69.1953125 81.98046875 C-79.09033488 81.65225548 -88.18414926 78.40792537 -97 74 C-96.4133247 70.24936435 -95.35059992 67.440724 -93.49609375 64.13671875 C-92.75649414 62.80737305 -92.75649414 62.80737305 -92.00195312 61.45117188 C-91.48568359 60.53916016 -90.96941406 59.62714844 -90.4375 58.6875 C-89.91736328 57.75615234 -89.39722656 56.82480469 -88.86132812 55.86523438 C-87.58023026 53.57336205 -86.29297895 51.28518387 -85 49 C-81.18002148 49.51209857 -77.47979336 50.10157996 -73.75 51.0625 C-57.71416663 54.2647777 -41.46506816 52.50861776 -27.5625 43.6875 C-22.48517669 40.2786475 -17.84084474 36.78437732 -14 32 C-13.34644531 31.20851563 -12.69289063 30.41703125 -12.01953125 29.6015625 C-5.23287908 20.51024983 -2.94138829 10.88313667 0 0 Z " fill="#FDFBFA" transform="translate(392,245)"/>
<path d="M0 0 C1.18078125 -0.020625 2.3615625 -0.04125 3.578125 -0.0625 C16.74874973 -0.12116648 16.74874973 -0.12116648 22.625 3.25 C24.16796875 5.484375 24.16796875 5.484375 24.8125 8 C26.93602168 14.56187329 30.22265419 18.97675093 36.125 22.625 C41.91783934 25.31453255 46.76268087 25.24899131 53.0625 24.875 C61.258601 24.84295268 61.258601 24.84295268 64.625 28.125 C65.67046862 29.46575365 66.66959688 30.8436466 67.625 32.25 C68.18058594 32.9409375 68.73617187 33.631875 69.30859375 34.34375 C79.8394977 48.04096138 85.625 64.05099215 85.625 81.25 C76.055 81.25 66.485 81.25 56.625 81.25 C55.635 75.805 55.635 75.805 54.625 70.25 C50.51793085 56.04638584 41.18300795 44.54397768 28.43261719 37.20361328 C15.41262448 30.33488131 0.31044842 26.17789019 -14.30859375 30.1796875 C-16.48043545 30.89459566 -18.63872249 31.65352142 -20.7734375 32.47265625 C-23.65430537 33.33345611 -24.63163374 33.36827246 -27.375 32.25 C-28.82299805 30.36401367 -28.82299805 30.36401367 -30.13671875 27.91796875 C-30.61560547 27.03689453 -31.09449219 26.15582031 -31.58789062 25.24804688 C-32.31782227 23.85682617 -32.31782227 23.85682617 -33.0625 22.4375 C-33.56072266 21.52162109 -34.05894531 20.60574219 -34.57226562 19.66210938 C-38.54645655 12.25835884 -38.54645655 12.25835884 -39.375 8.25 C-26.73218307 1.33223225 -14.18143367 0.06152466 0 0 Z " fill="#FEFBFB" transform="translate(334.375,152.75)"/>
<path d="M0 0 C6.1170404 2.17328235 10.37788217 5.68001443 14 11 C15.99219301 17.10510761 16.08982955 24.42976907 13.4375 30.3125 C12.296875 32.20703125 12.296875 32.20703125 11 34 C10.57203125 34.60199219 10.1440625 35.20398438 9.703125 35.82421875 C6.83307042 38.99755229 4.70043982 39.90747465 0.421875 40.47265625 C-7.00569968 40.64014078 -13.10366116 40.58829495 -18.828125 35.31640625 C-19.29734375 34.73761719 -19.7665625 34.15882813 -20.25 33.5625 C-20.96929687 32.69818359 -20.96929687 32.69818359 -21.703125 31.81640625 C-25.5484565 26.43062568 -25.86524719 21.49836691 -25 15 C-20.71020063 3.79672934 -11.50273805 -1.3371743 0 0 Z " fill="#FDFAF9" transform="translate(389,308)"/>
<path d="M0 0 C3.93899325 2.28509548 8.01908983 5.60270026 9.59765625 9.98046875 C10.65636832 16.87470092 11.07183261 24.21904719 7.359375 30.359375 C3.50374013 35.08699268 -0.43136347 37.67016741 -6.4921875 38.6953125 C-12.13817346 38.9615755 -16.87880559 38.897264 -21.63671875 35.6171875 C-25.91732896 31.67718498 -29.52191524 27.50004649 -30.48046875 21.62890625 C-30.73048906 14.76376521 -29.02235936 10.2197818 -25.38671875 4.4296875 C-18.25170326 -2.70532799 -9.20126693 -3.87227666 0 0 Z " fill="#FDFAF9" transform="translate(394.07421875,132.8828125)"/>
<path d="M0 0 C3.11582328 1.21902319 5.46702953 2.83603016 8 5 C8.78375 5.61875 9.5675 6.2375 10.375 6.875 C13.64708183 11.15387624 14.54725225 16.49410846 14.37109375 21.8203125 C13.45886702 27.17844422 11.15609013 32.19432605 6.95703125 35.7109375 C5.00972635 36.93820069 3.07806423 38.01372227 1 39 C0.01 39.495 0.01 39.495 -1 40 C-7.02602746 40.65011085 -12.73559132 40.15864521 -18 37 C-22.63326176 32.83931039 -25.60885098 28.37934563 -26.3359375 22.09765625 C-26.41604543 15.87327044 -26.42890037 11.76958502 -22 7 C-14.84274428 0.25719561 -10.01592484 -1.05430788 0 0 Z " fill="#FEFBFA" transform="translate(237,220)"/>
</svg>
